<svg width="83" height="59" viewBox="0 0 83 59" fill="none" xmlns="http://www.w3.org/2000/svg">
<path d="M53.125 58.5625H0.8125V41.125C3.89564 41.125 6.85251 39.9002 9.03262 37.7201C11.2127 35.54 12.4375 32.5831 12.4375 29.5C12.4375 26.4169 11.2127 23.46 9.03262 21.2799C6.85251 19.0998 3.89564 17.875 0.8125 17.875V0.4375H53.125V14.9688H58.9375V0.4375H82.1875V17.875C79.1044 17.875 76.1475 19.0998 73.9674 21.2799C71.7873 23.46 70.5625 26.4169 70.5625 29.5C70.5625 32.5831 71.7873 35.54 73.9674 37.7201C76.1475 39.9002 79.1044 41.125 82.1875 41.125V58.5625H58.9375V44.0312H53.125V58.5625ZM53.125 20.7812V38.2188H58.9375V20.7812H53.125Z" fill="#1C1C3A"/>
</svg>
