<svg width="24" height="24" viewBox="0 0 24 24" fill="none" xmlns="http://www.w3.org/2000/svg">
<path d="M4.5 10C4.5 6.229 4.5 4.343 5.672 3.172C6.844 2.001 8.729 2 12.5 2H14C17.771 2 19.657 2 20.828 3.172C21.999 4.344 22 6.229 22 10V14C22 17.771 22 19.657 20.828 20.828C19.656 21.999 17.771 22 14 22H12.5C8.729 22 6.843 22 5.672 20.828C4.501 19.656 4.5 17.771 4.5 14V10Z" stroke="#1C1C3A" stroke-width="1.5" stroke-linecap="round" stroke-linejoin="round"/>
<path d="M15.25 10V12.5C15.25 12.8978 15.408 13.2794 15.6893 13.5607C15.9706 13.842 16.3522 14 16.75 14C17.1478 14 17.5294 13.842 17.8107 13.5607C18.092 13.2794 18.25 12.8978 18.25 12.5V12C18.25 10.8737 17.8697 9.7803 17.1707 8.89708C16.4717 8.01387 15.495 7.39254 14.3988 7.13376C13.3025 6.87497 12.1511 6.9939 11.1309 7.47128C10.1107 7.94865 9.28158 8.7565 8.77786 9.76393C8.27415 10.7714 8.12534 11.9194 8.35555 13.0219C8.58576 14.1245 9.18151 15.1171 10.0463 15.8388C10.911 16.5605 11.9941 16.969 13.1201 16.9983C14.2461 17.0276 15.3489 16.6758 16.25 16M4.5 6H2M4.5 12H2M4.5 18H2M15.25 12C15.25 12.5304 15.0393 13.0391 14.6642 13.4142C14.2891 13.7893 13.7804 14 13.25 14C12.7196 14 12.2109 13.7893 11.8358 13.4142C11.4607 13.0391 11.25 12.5304 11.25 12C11.25 11.4696 11.4607 10.9609 11.8358 10.5858C12.2109 10.2107 12.7196 10 13.25 10C13.7804 10 14.2891 10.2107 14.6642 10.5858C15.0393 10.9609 15.25 11.4696 15.25 12Z" stroke="#1C1C3A" stroke-width="1.5" stroke-linecap="round" stroke-linejoin="round"/>
</svg>
